<svg width="117" height="117" viewBox="0 0 117 117" fill="none" xmlns="http://www.w3.org/2000/svg">
<path d="M38.2551 0C17.1602 0 0 17.1602 0 38.2551C0 59.3501 17.1602 76.5102 38.2551 76.5102C48.1832 76.5102 57.2114 72.6774 64.0172 66.4546C64.0974 66.5967 64.1702 66.7461 64.2941 66.87L72.131 74.7068C71.2979 76.0903 70.9541 77.7137 71.155 79.3161C71.3559 80.9185 72.0897 82.4069 73.2385 83.5419L104.152 114.456C105.526 115.829 107.355 116.587 109.3 116.587C111.246 116.587 113.075 115.829 114.452 114.452C115.829 113.075 116.587 111.246 116.587 109.3C116.587 107.355 115.829 105.526 114.452 104.149L83.5383 73.2349C81.2284 70.925 77.4939 70.5789 74.7214 72.1455L66.87 64.2941C66.7461 64.1702 66.6003 64.0974 66.4546 64.0172C72.9177 56.9942 76.5066 47.7995 76.5102 38.2551C76.5102 17.1602 59.3501 0 38.2551 0ZM80.9624 75.8107L111.876 106.725C112.565 107.413 112.944 108.328 112.944 109.3C112.944 110.273 112.565 111.188 111.876 111.876C111.182 112.538 110.259 112.907 109.3 112.907C108.341 112.907 107.419 112.538 106.725 111.876L75.8107 80.9624C75.4712 80.6248 75.2018 80.2235 75.018 79.7814C74.8341 79.3394 74.7395 78.8653 74.7395 78.3866C74.7395 77.9078 74.8341 77.4338 75.018 76.9917C75.2018 76.5496 75.4712 76.1483 75.8107 75.8107C76.1483 75.4712 76.5496 75.2018 76.9917 75.018C77.4338 74.8341 77.9078 74.7395 78.3866 74.7395C78.8653 74.7395 79.3394 74.8341 79.7814 75.018C80.2235 75.2018 80.6248 75.4712 80.9624 75.8107ZM38.2551 72.8669C19.1713 72.8669 3.64335 57.339 3.64335 38.2551C3.64335 19.1713 19.1713 3.64335 38.2551 3.64335C57.339 3.64335 72.8669 19.1713 72.8669 38.2551C72.8669 57.339 57.339 72.8669 38.2551 72.8669Z" fill="white"/>
<path d="M38.255 10.9297C23.1861 10.9297 10.9299 23.1859 10.9299 38.2548C10.9299 53.3237 23.1861 65.5799 38.255 65.5799C53.3239 65.5799 65.5801 53.3237 65.5801 38.2548C65.5801 23.1859 53.3239 10.9297 38.255 10.9297ZM38.255 61.9365C25.1973 61.9365 14.5733 51.3125 14.5733 38.2548C14.5733 25.197 25.1973 14.573 38.255 14.573C51.3128 14.573 61.9368 25.197 61.9368 38.2548C61.9368 51.3125 51.3128 61.9365 38.255 61.9365Z" fill="white"/>
</svg>
