<svg width="30" height="30" viewBox="0 0 30 30" fill="none" xmlns="http://www.w3.org/2000/svg">
<path fill-rule="evenodd" clip-rule="evenodd" d="M15.1353 29.2849C23.0026 29.2849 29.3803 22.9072 29.3803 15.0399C29.3803 7.17263 23.0026 0.794922 15.1353 0.794922C7.26801 0.794922 0.890305 7.17263 0.890305 15.0399C0.890305 22.9072 7.26801 29.2849 15.1353 29.2849ZM8.0128 12.0176C8.0128 9.75667 9.85228 7.91741 12.113 7.91741H18.1576C20.4185 7.91741 22.2578 9.7569 22.2578 12.0176V18.1176C22.2578 20.3784 20.4185 22.2178 18.1576 22.2178H12.113C9.85205 22.2178 8.0128 20.3784 8.0128 18.1176V12.0176ZM11.4283 15.0414C11.4283 13.0128 13.0965 11.3625 15.1466 11.3625C17.1967 11.3625 18.8649 13.0128 18.8649 15.0414C18.8649 17.0699 17.1967 18.7202 15.1466 18.7202C13.0963 18.7202 11.4283 17.0699 11.4283 15.0414ZM12.7826 15.0414C12.7826 16.3229 13.843 17.3658 15.1466 17.3658C16.4502 17.3658 17.5106 16.3231 17.5106 15.0414C17.5106 13.7597 16.45 12.7171 15.1466 12.7171C13.843 12.7171 12.7826 13.7597 12.7826 15.0414ZM18.9315 12.0871C19.4147 12.0871 19.8064 11.6954 19.8064 11.2122C19.8064 10.729 19.4147 10.3373 18.9315 10.3373C18.4483 10.3373 18.0566 10.729 18.0566 11.2122C18.0566 11.6954 18.4483 12.0871 18.9315 12.0871Z" fill="white"/>
</svg>
