<svg width="264" height="264" viewBox="0 0 264 264" fill="none" xmlns="http://www.w3.org/2000/svg">
<path d="M260.491 132.117C260.491 61.39 203.037 4 132.246 4C61.4541 4 4 61.39 4 132.117C4 171.072 21.6979 206.179 49.399 229.745C49.6555 230.001 49.912 230.001 49.912 230.258C52.2204 232.053 54.5288 233.848 57.0937 235.644C58.3762 236.413 59.4022 237.423 60.6846 238.449C81.8783 252.819 106.897 260.497 132.502 260.491C158.108 260.497 183.126 252.819 204.32 238.449C205.602 237.68 206.628 236.67 207.911 235.884C210.219 234.105 212.784 232.309 215.092 230.514C215.349 230.258 215.605 230.258 215.605 230.001C242.794 206.163 260.491 171.072 260.491 132.117V132.117ZM132.246 244.349C108.136 244.349 86.0773 236.654 67.8664 223.845C68.1229 221.793 68.6359 219.757 69.1488 217.706C70.6772 212.145 72.9187 206.805 75.8176 201.819C78.639 196.946 81.9734 192.585 86.0773 188.738C89.9246 184.891 94.5415 181.316 99.1583 178.494C104.032 175.673 109.162 173.621 114.804 172.082C120.491 170.549 126.356 169.778 132.246 169.79C149.73 169.666 166.571 176.373 179.184 188.482C185.083 194.381 189.7 201.306 193.034 209.241C194.83 213.858 196.112 218.731 196.882 223.845C177.952 237.153 155.385 244.312 132.246 244.349ZM93.0025 125.721C90.7426 120.547 89.6061 114.952 89.6682 109.306C89.6682 103.679 90.6941 98.0362 93.0025 92.9064C95.311 87.7765 98.3889 83.1757 102.236 79.3283C106.084 75.481 110.7 72.4191 115.83 70.1107C120.96 67.8023 126.603 66.7763 132.246 66.7763C138.145 66.7763 143.531 67.8023 148.661 70.1107C153.791 72.4191 158.408 75.497 162.255 79.3283C166.103 83.1757 169.181 87.7926 171.489 92.9064C173.797 98.0362 174.823 103.679 174.823 109.306C174.823 115.205 173.797 120.591 171.489 125.705C169.261 130.759 166.132 135.366 162.255 139.299C158.32 143.171 153.714 146.294 148.661 148.517C138.062 152.873 126.173 152.873 115.574 148.517C110.521 146.294 105.915 143.171 101.98 139.299C98.0973 135.423 95.0431 130.798 93.0025 125.705V125.721ZM212.015 210.78C212.015 210.267 211.758 210.011 211.758 209.498C209.235 201.473 205.517 193.875 200.729 186.959C195.936 179.991 190.046 173.847 183.288 168.764C178.126 164.881 172.531 161.61 166.616 159.017C169.307 157.242 171.8 155.183 174.054 152.877C177.878 149.102 181.236 144.883 184.057 140.309C189.738 130.976 192.671 120.231 192.521 109.306C192.601 101.219 191.03 93.2001 187.904 85.7406C184.819 78.5531 180.378 72.0273 174.823 66.5198C169.277 61.0699 162.75 56.7185 155.586 53.6952C148.115 50.5755 140.086 49.0101 131.989 49.0944C123.892 49.0152 115.863 50.5861 108.392 53.7113C101.166 56.728 94.6234 61.1717 89.1552 66.7763C83.7054 72.3163 79.3539 78.8381 76.3306 85.9971C73.2054 93.4565 71.6344 101.475 71.7138 109.562C71.7138 115.205 72.4832 120.591 74.0222 125.705C75.5611 131.092 77.6131 135.965 80.4345 140.566C82.9994 145.183 86.5903 149.286 90.4376 153.134C92.7461 155.442 95.311 157.478 98.1324 159.274C92.1984 161.936 86.6018 165.294 81.4604 169.277C74.7916 174.407 68.8923 180.546 64.019 187.215C59.1819 194.102 55.4599 201.709 52.9899 209.754C52.7334 210.267 52.7334 210.78 52.7334 211.037C32.4706 190.533 19.9025 162.864 19.9025 132.117C19.9025 70.3672 70.4313 19.8864 132.246 19.8864C194.06 19.8864 244.589 70.3672 244.589 132.117C244.555 161.613 232.844 189.896 212.015 210.78V210.78Z" stroke="white" stroke-width="7"/>
</svg>
