<svg width="44" height="45" viewBox="0 0 44 45" fill="none" xmlns="http://www.w3.org/2000/svg">
<path d="M30.4537 32.7125C30.0156 32.1949 29.7966 31.608 29.7966 30.9519C29.7966 30.2957 30.0156 29.7479 30.4537 29.3083L34.8748 24.8889H17.7283C17.0512 24.8889 16.4832 24.6596 16.0244 24.2009C15.5656 23.7422 15.3369 23.1753 15.3385 22.5C15.3385 21.8231 15.568 21.2554 16.0268 20.7967C16.4856 20.3381 17.0528 20.1095 17.7283 20.1111H34.8748L30.4537 15.6917C29.9758 15.2139 29.7368 14.6461 29.7368 13.9884C29.7368 13.3306 29.9758 12.7637 30.4537 12.2875C30.8919 11.8097 31.4399 11.5708 32.0979 11.5708C32.7559 11.5708 33.3031 11.7898 33.7397 12.2278L42.3428 20.8278C42.5818 21.0667 42.7514 21.3255 42.8518 21.6042C42.9522 21.8829 43.0016 22.1815 43 22.5C43 22.8185 42.9506 23.1171 42.8518 23.3958C42.753 23.6745 42.5833 23.9333 42.3428 24.1722L33.7397 32.7722C33.2219 33.2898 32.6539 33.5191 32.0358 33.4602C31.4176 33.4013 30.8903 33.152 30.4537 32.7125ZM5.77952 44C4.46515 44 3.33957 43.5318 2.40279 42.5953C1.46601 41.6589 0.998411 40.5345 1 39.2222V5.77778C1 4.46389 1.4684 3.33873 2.40518 2.40228C3.34196 1.46584 4.46674 0.998411 5.77952 1H20.1181C20.7951 1 21.3631 1.22934 21.8219 1.688C22.2808 2.14667 22.5094 2.71363 22.5078 3.38889C22.5078 4.06574 22.2784 4.6335 21.8196 5.09217C21.3607 5.55084 20.7936 5.77937 20.1181 5.77778H5.77952V39.2222H20.1181C20.7951 39.2222 21.3631 39.4515 21.8219 39.9102C22.2808 40.3689 22.5094 40.9358 22.5078 41.6111C22.5078 42.288 22.2784 42.8557 21.8196 43.3144C21.3607 43.773 20.7936 44.0016 20.1181 44H5.77952Z" stroke="white"/>
</svg>
