<svg width="30" height="30" viewBox="0 0 30 30" fill="none" xmlns="http://www.w3.org/2000/svg">
<path fill-rule="evenodd" clip-rule="evenodd" d="M14.9472 29.2849C22.8144 29.2849 29.1922 22.9071 29.1922 15.0399C29.1922 7.17269 22.8144 0.794922 14.9472 0.794922C7.07996 0.794922 0.702194 7.17269 0.702194 15.0399C0.702194 22.9071 7.07996 29.2849 14.9472 29.2849ZM20.3862 11.155C20.9691 11.0903 21.5514 10.9607 22.0697 10.7017C21.6811 11.2844 21.2281 11.8023 20.5802 12.1262V12.5148C20.5802 16.3997 17.6665 20.8026 12.2925 20.8026C10.609 20.8026 9.11956 20.3496 7.82469 19.5077C8.08366 19.5724 8.27768 19.5724 8.53694 19.5724C9.89676 19.5724 11.1916 19.1194 12.1629 18.3422C10.868 18.3422 9.83209 17.5003 9.44349 16.3348C9.57312 16.3994 9.76742 16.3994 9.96143 16.3994C10.2198 16.3994 10.4782 16.3351 10.7364 16.2704L10.7386 16.2698C9.3791 16.0108 8.40759 14.8453 8.40759 13.4208V13.3561C8.79153 13.6106 9.24215 13.7458 9.70274 13.7448C8.92582 13.2265 8.40759 12.3849 8.40759 11.3487C8.40759 10.7661 8.53722 10.3129 8.79619 9.85986C10.2854 11.608 12.4221 12.7735 14.8178 12.9032C14.7532 12.7089 14.7532 12.5146 14.7532 12.2556C14.7515 11.8725 14.8258 11.4929 14.9717 11.1387C15.1175 10.7844 15.3321 10.4626 15.6029 10.1917C15.8738 9.92081 16.1957 9.70625 16.5499 9.5604C16.9041 9.41455 17.2837 9.34029 17.6668 9.34191C18.5084 9.34191 19.2853 9.66556 19.8036 10.2482C20.5158 10.1188 21.0984 9.86014 21.6811 9.53593C21.4221 10.2485 20.9688 10.7664 20.3862 11.155Z" fill="white"/>
</svg>
