<svg width="30" height="30" viewBox="0 0 30 30" fill="none" xmlns="http://www.w3.org/2000/svg">
<path fill-rule="evenodd" clip-rule="evenodd" d="M14.7593 29.2849C22.6265 29.2849 29.0042 22.9071 29.0042 15.0399C29.0042 7.17269 22.6265 0.794922 14.7593 0.794922C6.89204 0.794922 0.514271 7.17269 0.514271 15.0399C0.514271 22.9071 6.89204 29.2849 14.7593 29.2849ZM7.63676 10.4815C7.75243 16.0336 10.5285 19.3704 15.3954 19.3704H15.6712V16.1937C17.4598 16.3718 18.812 17.6798 19.355 19.3704H21.8817C21.1877 16.8433 19.3638 15.4465 18.2248 14.9126C19.3638 14.2542 20.9652 12.6524 21.3478 10.4815H19.0521C18.5538 12.2433 17.0772 13.8448 15.6712 13.996V10.4815H13.3758V16.6385C11.9521 16.2826 10.1547 14.5567 10.0744 10.4815H7.63676Z" fill="white"/>
</svg>
